<svg width="110" height="110" viewBox="0 0 110 110" fill="none" xmlns="http://www.w3.org/2000/svg">
<circle cx="55" cy="55" r="55" fill="#A7C957"/>
<path d="M54.4998 60.625C48.0275 60.625 42.2718 63.75 38.6074 68.5997C37.8188 69.6435 37.4244 70.1653 37.4373 70.8707C37.4473 71.4156 37.7895 72.103 38.2182 72.4395C38.7732 72.875 39.5423 72.875 41.0804 72.875H67.9192C69.4573 72.875 70.2264 72.875 70.7813 72.4395C71.2101 72.103 71.5523 71.4156 71.5622 70.8707C71.5751 70.1653 71.1808 69.6435 70.3921 68.5997C66.7277 63.75 60.972 60.625 54.4998 60.625Z" stroke="#FEFEFE" stroke-width="2" stroke-linecap="round" stroke-linejoin="round"/>
<path d="M54.4998 54.5C59.5739 54.5 63.6873 50.3866 63.6873 45.3125C63.6873 40.2384 59.5739 36.125 54.4998 36.125C49.4257 36.125 45.3123 40.2384 45.3123 45.3125C45.3123 50.3866 49.4257 54.5 54.4998 54.5Z" stroke="#FEFEFE" stroke-width="2" stroke-linecap="round" stroke-linejoin="round"/>
</svg>
