<svg width="143" height="143" viewBox="0 0 143 143" fill="none" xmlns="http://www.w3.org/2000/svg">
<circle cx="71.5" cy="71.5" r="71.5" fill="#EC5656"/>
<path d="M70.8501 78.8125C62.4361 78.8125 54.9537 82.8751 50.19 89.1796C49.1647 90.5365 48.6521 91.215 48.6689 92.1319C48.6818 92.8403 49.1267 93.734 49.684 94.1714C50.4055 94.7375 51.4053 94.7375 53.4048 94.7375H88.2953C90.2948 94.7375 91.2946 94.7375 92.0161 94.1714C92.5734 93.734 93.0183 92.8403 93.0312 92.1319C93.048 91.215 92.5354 90.5365 91.5101 89.1796C86.7464 82.8751 79.264 78.8125 70.8501 78.8125Z" stroke="#FEFEFE" stroke-width="2" stroke-linecap="round" stroke-linejoin="round"/>
<path d="M70.8501 70.85C77.4464 70.85 82.7938 65.5026 82.7938 58.9063C82.7938 52.3099 77.4464 46.9625 70.8501 46.9625C64.2537 46.9625 58.9063 52.3099 58.9063 58.9063C58.9063 65.5026 64.2537 70.85 70.8501 70.85Z" stroke="#FEFEFE" stroke-width="2" stroke-linecap="round" stroke-linejoin="round"/>
</svg>
