<svg xmlns="http://www.w3.org/2000/svg"  viewBox="0 0 50 50" width="100px" height="100px"><path d="M 14.015625 16 L 14.640625 18 L 0 18 L 0 19 C 0 23.598 7.9684844 27.372516 18.271484 27.728516 L 20.269531 34 L 21.964844 34 L 19.892578 41.619141 L 37.539062 41.619141 L 36.019531 34 L 37.728516 34 L 37.951172 33.306641 C 39.727172 27.786641 44.366469 23.127609 49.230469 21.974609 L 50 21.791016 L 50 16 L 14.015625 16 z M 16.734375 18 L 48 18 L 48 20.234375 C 42.985 21.757375 38.319156 26.437 36.285156 32 L 34.382812 32 L 32.882812 35 L 34.179688 35 L 35.101562 39.619141 L 22.509766 39.619141 L 23.763672 35 L 24.818359 35 L 23.693359 32 L 21.730469 32 L 19.742188 25.761719 L 19.025391 25.748047 C 10.079391 25.579047 3.5502344 22.763 2.2402344 20 L 17.359375 20 L 16.734375 18 z M 30.65625 19.5 C 30.65625 19.5 28.673938 20.339625 28.210938 21.265625 C 27.667937 22.352625 28.346422 23.303656 28.482422 23.847656 C 28.618422 24.391656 27.531766 24.119688 27.259766 23.304688 C 26.988766 24.391687 27.124969 24.52875 27.667969 25.34375 C 28.241969 26.20475 28.397797 28.060547 26.716797 28.060547 C 24.950797 28.060547 25.630859 25.75 25.630859 25.75 C 25.630859 25.75 24 26.564828 24 27.923828 C 24 30.369828 26.174719 30.913344 27.261719 30.777344 C 28.348719 30.641344 29.162109 32 29.162109 32 C 29.298109 31.321 29.570281 31.184594 30.113281 31.183594 C 30.721281 31.183594 31.608109 30.912656 32.287109 30.097656 C 33.580109 28.545656 33.238312 27.379453 32.695312 26.564453 C 32.967312 28.874453 31.472687 29.009766 30.929688 29.009766 C 30.197688 29.009766 29.435203 27.652141 30.658203 27.244141 C 31.880203 26.836141 31.337891 25.884766 31.337891 25.884766 C 31.337891 25.884766 30.928281 26.69925 30.113281 26.15625 C 29.313281 25.62425 30.792969 24.527344 30.792969 24.527344 C 30.792969 24.527344 29.434828 23.305547 29.298828 21.810547 C 29.162828 20.315547 30.65625 19.5 30.65625 19.5 z"/></svg>