<svg width="49" height="49" viewBox="0 0 49 49" fill="none" xmlns="http://www.w3.org/2000/svg">
<path d="M16.5906 28.5833C17.4972 32.1057 20.6947 34.7083 24.5 34.7083C28.3053 34.7083 31.5028 32.1057 32.4094 28.5833M22.4945 5.64319L8.64725 16.4132C7.72163 17.1332 7.25881 17.4931 6.92539 17.9439C6.63004 18.3433 6.41002 18.7931 6.27614 19.2714C6.125 19.8114 6.125 20.3977 6.125 21.5703V36.3417C6.125 38.6285 6.125 39.772 6.57006 40.6455C6.96154 41.4138 7.58621 42.0385 8.35454 42.4299C9.22801 42.875 10.3715 42.875 12.6583 42.875H36.3417C38.6285 42.875 39.772 42.875 40.6455 42.4299C41.4138 42.0385 42.0385 41.4138 42.4299 40.6455C42.875 39.772 42.875 38.6285 42.875 36.3417V21.5703C42.875 20.3977 42.875 19.8114 42.7239 19.2714C42.59 18.7931 42.37 18.3433 42.0746 17.9439C41.7412 17.4931 41.2784 17.1332 40.3527 16.4132L26.5055 5.6432C25.7883 5.0853 25.4296 4.80636 25.0336 4.69913C24.6842 4.60452 24.3158 4.60452 23.9664 4.69913C23.5704 4.80636 23.2118 5.0853 22.4945 5.64319Z" stroke="black" stroke-width="3" stroke-linecap="round" stroke-linejoin="round"/>
</svg>
