<svg xmlns="http://www.w3.org/2000/svg"  viewBox="0 0 50 50" width="50px" height="50px"><path d="M 14.529297 4 C 10.945962 4 8.2102289 5.0579538 6.4589844 7.109375 C 4.7077399 9.1607962 4 12.048664 4 15.525391 L 4 35.525391 C 4 41.545873 8.4096495 46 14.529297 46 L 24 46 L 24 4 L 14.529297 4 z M 26 4 L 26 46 L 35.470703 46 C 41.59035 46 46 41.545873 46 35.525391 L 46 15.525391 C 46 12.048664 45.29226 9.1607962 43.541016 7.109375 C 41.789771 5.0579538 39.054038 4 35.470703 4 L 26 4 z M 14.529297 6 L 22 6 L 22 44 L 14.529297 44 C 9.332944 44 6 40.616908 6 35.525391 L 6 15.525391 C 6 12.322117 6.6625101 9.949782 7.9785156 8.4082031 C 9.2945211 6.8666243 11.323632 6 14.529297 6 z M 28 6 L 35.470703 6 C 38.676368 6 40.705479 6.8666243 42.021484 8.4082031 C 43.33749 9.949782 44 12.322117 44 15.525391 L 44 35.525391 C 44 40.616908 40.667056 44 35.470703 44 L 28 44 L 28 6 z M 14.5 10 C 13.083334 10 11.893559 10.567256 11.126953 11.429688 C 10.360347 12.292118 10 13.402778 10 14.5 C 10 15.597222 10.360347 16.707881 11.126953 17.570312 C 11.893559 18.432744 13.083334 19 14.5 19 C 15.916666 19 17.106441 18.432744 17.873047 17.570312 C 18.639653 16.707881 19 15.597222 19 14.5 C 19 13.402778 18.639653 12.292119 17.873047 11.429688 C 17.106441 10.567255 15.916666 10 14.5 10 z M 14.5 12 C 15.416666 12 15.976893 12.307744 16.376953 12.757812 C 16.777013 13.207882 17 13.847222 17 14.5 C 17 15.152778 16.777013 15.792119 16.376953 16.242188 C 15.976893 16.692256 15.416666 17 14.5 17 C 13.583334 17 13.023107 16.692256 12.623047 16.242188 C 12.222987 15.792119 12 15.152778 12 14.5 C 12 13.847222 12.222987 13.207881 12.623047 12.757812 C 13.023107 12.307745 13.583334 12 14.5 12 z M 35.5 24 C 34.083334 24 32.893559 24.567256 32.126953 25.429688 C 31.360347 26.292119 31 27.402778 31 28.5 C 31 29.597222 31.360347 30.707882 32.126953 31.570312 C 32.893559 32.432744 34.083334 33 35.5 33 C 36.916666 33 38.106441 32.432744 38.873047 31.570312 C 39.639653 30.707881 40 29.597222 40 28.5 C 40 27.402778 39.639653 26.292118 38.873047 25.429688 C 38.106441 24.567256 36.916666 24 35.5 24 z M 35.5 26 C 36.416666 26 36.976893 26.307744 37.376953 26.757812 C 37.777013 27.207881 38 27.847222 38 28.5 C 38 29.152778 37.777013 29.792118 37.376953 30.242188 C 36.976893 30.692256 36.416666 31 35.5 31 C 34.583334 31 34.023107 30.692256 33.623047 30.242188 C 33.222987 29.792119 33 29.152778 33 28.5 C 33 27.847222 33.222987 27.207882 33.623047 26.757812 C 34.023107 26.307744 34.583334 26 35.5 26 z"/></svg>