<svg width="45" height="45" viewBox="0 0 45 45" fill="none" xmlns="http://www.w3.org/2000/svg">
<path d="M19.6868 25.3126L39.3743 5.62508M19.9261 25.9277L24.8538 38.599C25.2879 39.7152 25.5049 40.2734 25.8177 40.4363C26.0888 40.5776 26.4118 40.5778 26.6831 40.4368C26.996 40.2742 27.2137 39.7164 27.6491 38.6006L40.006 6.93607C40.3991 5.92886 40.5956 5.42526 40.4881 5.10345C40.3948 4.82399 40.1754 4.60467 39.896 4.51131C39.5742 4.40381 39.0706 4.60034 38.0634 4.99339L6.39883 17.3503C5.28306 17.7857 4.72518 18.0034 4.5626 18.3164C4.42166 18.5876 4.42185 18.9106 4.56311 19.1817C4.72606 19.4945 5.2842 19.7115 6.40047 20.1457L19.0717 25.0734C19.2983 25.1615 19.4116 25.2055 19.507 25.2736C19.5916 25.3339 19.6655 25.4079 19.7258 25.4924C19.7939 25.5878 19.8379 25.7011 19.9261 25.9277Z" stroke="#FEFEFE" stroke-width="2" stroke-linecap="round" stroke-linejoin="round"/>
</svg>
