<svg xmlns="http://www.w3.org/2000/svg"  viewBox="0 0 128 128" width="128px" height="128px">
<path d="M 97 21 C 81.588592 21 69.019191 33.557786 69 48.964844 L 51.539062 71.25 A 3.0003 3.0003 0 0 0 54.171875 76.087891 L 55.066406 76.005859 C 63.298932 76.04273 70 82.759066 70 91 A 3.0003 3.0003 0 0 0 70.019531 91.365234 A 3.0003 3.0003 0 0 0 69.904297 92.039062 C 69.48945 99.75523 63.0375 106 55 106 C 50.292857 106 46.157908 103.91767 43.414062 100.5918 A 3.0003 3.0003 0 1 0 38.785156 104.4082 C 42.641311 109.08233 48.507143 112 55 112 C 65.644057 112 74.366953 104.01209 75.669922 93.835938 C 82.206923 88.71592 90.27046 82.357561 97.044922 76.996094 C 112.44708 76.971081 125 64.40783 125 49 C 125 33.576812 112.42319 21 97 21 z M 97 27 C 109.17681 27 119 36.823188 119 49 C 119 61.176812 109.17681 71 97 71 L 96 71 A 3.0003 3.0003 0 0 0 94.138672 71.648438 C 88.311262 76.261803 81.558496 81.575188 75.443359 86.376953 C 73.659534 78.562147 67.493083 72.38705 59.6875 70.578125 L 74.361328 51.849609 A 3.0003 3.0003 0 0 0 75 50 L 75 49 C 75 36.823188 84.823188 27 97 27 z M 97 32 C 87.646689 32 80 39.646696 80 49 C 80 58.353304 87.646689 66 97 66 C 106.35331 66 114 58.353304 114 49 C 114 39.646696 106.35331 32 97 32 z M 97 38 C 103.11067 38 108 42.889331 108 49 C 108 55.110669 103.11067 60 97 60 C 90.889328 60 86 55.110669 86 49 C 86 42.889331 90.889328 38 97 38 z M 11.210938 62.708984 C 7.7044025 62.679432 4.323664 64.70125 2.8476562 68.107422 C 0.88708492 72.631817 2.9662504 77.985115 7.5078125 79.953125 L 51.392578 99.246094 A 3.0003 3.0003 0 0 0 51.546875 99.308594 C 52.552098 99.685552 53.7 100 55 100 C 58.421935 100 61.797025 97.9478 63.255859 94.476562 C 65.203759 89.958516 63.131514 84.621408 58.601562 82.652344 L 14.701172 63.451172 A 3.0003 3.0003 0 0 0 14.693359 63.447266 C 13.562247 62.957117 12.379782 62.718835 11.210938 62.708984 z M 11.15625 68.71875 C 11.54662 68.718513 11.937739 68.793267 12.306641 68.953125 L 56.197266 88.148438 A 3.0003 3.0003 0 0 0 56.207031 88.152344 C 57.665469 88.784333 58.387475 90.631817 57.748047 92.107422 A 3.0003 3.0003 0 0 0 57.730469 92.146484 C 57.183326 93.459554 56.169565 94 55 94 C 54.704835 94 54.256438 93.912378 53.675781 93.697266 L 9.9082031 74.453125 A 3.0003 3.0003 0 0 0 9.8925781 74.447266 C 8.4341402 73.815317 7.714087 71.967792 8.3535156 70.492188 C 8.6695105 69.762968 9.2884934 69.21821 10.013672 68.935547 C 10.376261 68.794215 10.76588 68.718987 11.15625 68.71875 z"/></svg>